<?xml version="1.0"?>
<svg xmlns="http://www.w3.org/2000/svg" xmlns:xlink="http://www.w3.org/1999/xlink" version="1.1" id="Capa_1" x="0px" y="0px" viewBox="0 0 512 512" style="enable-background:new 0 0 512 512;" xml:space="preserve" width="512px" height="512px" class="hovered-paths"><g><path style="fill:#00000A;" d="M225.024,30.976C100.744,30.976,0,131.72,0,256c0,124.272,100.744,225.024,225.024,225.024  c124.224,0,224.928-100.656,225.016-224.856H225.024V30.976z" data-original="#00000A"/><path style="fill:#999999;" d="M446.176,71.96l-159.2,159.192h225.016c0-0.056,0.008-0.112,0.008-0.16  C512,168.888,486.848,112.672,446.176,71.96z" data-original="#999999"/><path style="fill:#666666;" d="M384.216,414.864L225.024,255.672H450.04c0,0.056,0.008,0.112,0.008,0.16  C450.04,317.928,424.888,374.152,384.216,414.864z" data-original="#666666" class=""/><path style="fill:#543882" d="M225.024,480.856V255.672l159.192,159.192C343.488,455.632,287.2,480.856,225.024,480.856z" data-original="#F91E1E" class="hovered-path active-path" data-old_color="#F91E1E"/><path style="fill:#E5E5E5;" d="M225.024,30.976v224.696l84.48-208.232C283.408,36.856,254.912,30.976,225.024,30.976z" data-original="#E5E5E5"/><polygon style="fill:#543882" points="225.024,255.672 225.024,256.16 231.224,249.96 " data-original="#F91E1E" class="hovered-path active-path" data-old_color="#F91E1E"/><path style="fill:#CCCCCC;" d="M384.216,96.968c-21.152-21.168-46.52-38.096-74.712-49.528l-84.48,208.232l6.208-5.712  L384.216,96.968z" data-original="#CCCCCC" class=""/></g> </svg>
