<?xml version="1.0" encoding="iso-8859-1"?>
<!-- Generator: Adobe Illustrator 19.0.0, SVG Export Plug-In . SVG Version: 6.00 Build 0)  -->
<svg version="1.1" id="Capa_1" xmlns="http://www.w3.org/2000/svg" xmlns:xlink="http://www.w3.org/1999/xlink" x="0px" y="0px"
	 viewBox="0 0 512 512" style="enable-background:new 0 0 512 512;" xml:space="preserve">
<rect x="27.192" y="68.784" style="fill:#FFFFFF;" width="415.8" height="415.8"/>
<polygon points="27.048,0.176 0,47.024 54.096,47.024 "/>
<g>
	<path style="fill:#CCCCCC;" d="M237.088,278.8H25.072V66.784h212.016L237.088,278.8L237.088,278.8z M29.072,274.8h204.016V70.784
		H29.072V274.8z"/>
	<rect x="77.896" y="69.008" style="fill:#CCCCCC;" width="4" height="207.784"/>
	<rect x="129.12" y="69.008" style="fill:#CCCCCC;" width="4" height="207.784"/>
	<rect x="180.28" y="69.008" style="fill:#CCCCCC;" width="4" height="207.784"/>
	<rect x="27.192" y="222.096" style="fill:#CCCCCC;" width="207.784" height="4"/>
	<rect x="27.192" y="170.904" style="fill:#CCCCCC;" width="207.784" height="4"/>
	<rect x="27.192" y="119.712" style="fill:#CCCCCC;" width="207.784" height="4"/>
	<path style="fill:#CCCCCC;" d="M445.104,278.8H233.088V66.784h212.016V278.8z M237.088,274.8h204.016V70.784H237.088V274.8z"/>
	<rect x="285.912" y="69.008" style="fill:#CCCCCC;" width="4" height="207.784"/>
	<rect x="337.12" y="69.008" style="fill:#CCCCCC;" width="4" height="207.784"/>
	<rect x="388.296" y="69.008" style="fill:#CCCCCC;" width="4" height="207.784"/>
	<rect x="235.208" y="222.096" style="fill:#CCCCCC;" width="207.784" height="4"/>
	<rect x="235.208" y="170.904" style="fill:#CCCCCC;" width="207.784" height="4"/>
	<rect x="235.208" y="119.712" style="fill:#CCCCCC;" width="207.784" height="4"/>
	<path style="fill:#CCCCCC;" d="M237.088,486.816H25.072V274.792h212.016L237.088,486.816L237.088,486.816z M29.072,482.816h204.016
		V278.792H29.072V482.816z"/>
	<rect x="77.896" y="277.024" style="fill:#CCCCCC;" width="4" height="207.784"/>
	<rect x="129.12" y="277.024" style="fill:#CCCCCC;" width="4" height="207.784"/>
	<rect x="180.28" y="277.024" style="fill:#CCCCCC;" width="4" height="207.784"/>
	<rect x="27.192" y="430.104" style="fill:#CCCCCC;" width="207.784" height="4"/>
	<rect x="27.192" y="378.872" style="fill:#CCCCCC;" width="207.784" height="4"/>
	<rect x="27.192" y="327.72" style="fill:#CCCCCC;" width="207.784" height="4"/>
	<path style="fill:#CCCCCC;" d="M445.104,486.816H233.088V274.792h212.016V486.816z M237.088,482.816h204.016V278.792H237.088
		V482.816z"/>
	<rect x="285.912" y="277.024" style="fill:#CCCCCC;" width="4" height="207.784"/>
	<rect x="337.12" y="277.024" style="fill:#CCCCCC;" width="4" height="207.784"/>
	<rect x="388.296" y="277.024" style="fill:#CCCCCC;" width="4" height="207.784"/>
	<rect x="235.208" y="430.104" style="fill:#CCCCCC;" width="207.784" height="4"/>
	<rect x="235.208" y="378.872" style="fill:#CCCCCC;" width="207.784" height="4"/>
	<rect x="235.208" y="327.72" style="fill:#CCCCCC;" width="207.784" height="4"/>
</g>
<polygon points="464.832,488.816 23.048,488.816 23.048,47.024 31.048,47.024 31.048,480.816 464.832,480.816 "/>
<polygon points="512,484.776 465.152,457.728 465.152,511.824 "/>
<polygon points="277.32,336.2 182.584,242.12 91.304,333.352 85.648,327.696 182.568,230.832 277.232,324.84 366.128,233.68 
	371.864,239.264 "/>
<circle style="fill:#F91E1E;" cx="88.48" cy="330.552" r="32.816"/>
<circle cx="88.48" cy="330.552" r="14.448"/>
<circle style="fill:#F91E1E;" cx="277.28" cy="330.552" r="32.816"/>
<circle cx="277.28" cy="330.552" r="14.448"/>
<circle style="fill:#F91E1E;" cx="182.576" cy="236.472" r="45.768"/>
<circle cx="182.576" cy="236.472" r="20.144"/>
<circle style="fill:#F91E1E;" cx="368.96" cy="236.472" r="45.768"/>
<circle cx="368.96" cy="236.472" r="20.144"/>
<g>
</g>
<g>
</g>
<g>
</g>
<g>
</g>
<g>
</g>
<g>
</g>
<g>
</g>
<g>
</g>
<g>
</g>
<g>
</g>
<g>
</g>
<g>
</g>
<g>
</g>
<g>
</g>
<g>
</g>
</svg>
