<?xml version="1.0" encoding="iso-8859-1"?>
<!-- Generator: Adobe Illustrator 19.0.0, SVG Export Plug-In . SVG Version: 6.00 Build 0)  -->
<svg version="1.1" id="Layer_1" xmlns="http://www.w3.org/2000/svg" xmlns:xlink="http://www.w3.org/1999/xlink" x="0px" y="0px"
	 viewBox="0 0 512 512" style="enable-background:new 0 0 512 512;" xml:space="preserve">
<circle cx="360" cy="441.6" r="58.4"/>
<circle cx="182.4" cy="441.6" r="58.4"/>
<polygon points="121.6,12 0,12 0,41.6 100,41.6 129.6,129.6 161.6,129.6 "/>
<polygon style="fill:#FFD67F;" points="161.6,129.6 129.6,129.6 64.8,129.6 135.2,356.8 407.2,356.8 488,129.6 "/>
<path style="fill:#FF583E;" d="M470.4,320.8c23.2,0,41.6-18.4,41.6-41.6v-68.8c0-22.4-16.8-40-37.6-41.6H219.2
	c-23.2,0-41.6,18.4-41.6,41.6v68.8c0,23.2,18.4,41.6,41.6,41.6L470.4,320.8L470.4,320.8z"/>
<g>
	<path style="fill:#FFFFFF;" d="M227.2,261.6c4,2.4,11.2,4.8,17.6,4.8c7.2,0,11.2-3.2,11.2-8c0-4.8-3.2-7.2-12-10.4
		c-12-4-20-10.4-20-20.8c0-12,10.4-21.6,27.2-21.6c8,0,14.4,1.6,18.4,4l-4,12.8c-3.2-1.6-8-3.2-15.2-3.2s-10.4,3.2-10.4,7.2
		c0,4.8,4,6.4,13.6,10.4c12.8,4.8,18.4,11.2,18.4,21.6c0,12-9.6,22.4-28.8,22.4c-8,0-16-2.4-20-4L227.2,261.6z"/>
	<path style="fill:#FFFFFF;" d="M283.2,202.4h16V232l0,0c1.6-2.4,4-4,6.4-5.6s5.6-2.4,8-2.4c10.4,0,18.4,7.2,18.4,22.4v30.4h-16V248
		c0-6.4-2.4-11.2-8-11.2c-4,0-7.2,2.4-8,5.6c-0.8,0.8-0.8,2.4-0.8,4v30.4h-16V202.4L283.2,202.4z"/>
	<path style="fill:#FFFFFF;" d="M396.8,252c0,19.2-13.6,28-27.2,28c-15.2,0-27.2-9.6-27.2-26.4s11.2-27.2,28-27.2
		C385.6,224.8,396.8,236,396.8,252z M359.2,252c0,8.8,4,16,10.4,16s10.4-6.4,10.4-16c0-8-3.2-16-10.4-16
		C361.6,236.8,359.2,244.8,359.2,252z"/>
	<path style="fill:#FFFFFF;" d="M406.4,244c0-6.4,0-12.8-0.8-17.6H420l0.8,7.2l0,0c4-5.6,9.6-8,17.6-8c11.2,0,21.6,9.6,21.6,26.4
		c0,19.2-12,28-23.2,28c-6.4,0-11.2-2.4-13.6-5.6l0,0V300h-16C406.4,299.2,406.4,244,406.4,244z M422.4,256c0,1.6,0,2.4,0,3.2
		c0.8,4,4.8,8,9.6,8c7.2,0,11.2-5.6,11.2-14.4c0-8-4-14.4-11.2-14.4c-4.8,0-8.8,3.2-9.6,8c0,0.8,0,1.6,0,3.2V256z"/>
</g>
<g>
</g>
<g>
</g>
<g>
</g>
<g>
</g>
<g>
</g>
<g>
</g>
<g>
</g>
<g>
</g>
<g>
</g>
<g>
</g>
<g>
</g>
<g>
</g>
<g>
</g>
<g>
</g>
<g>
</g>
</svg>
